<svg width="403" height="403" viewBox="0 0 403 403" fill="none" xmlns="http://www.w3.org/2000/svg">
<path fill-rule="evenodd" clip-rule="evenodd" d="M79.1798 145.365C73.9778 140.265 68.0669 137.714 61.6213 138.24C34.0541 140.49 7.14613 198.183 1.52067 267.101C-2.29939 313.901 4.67688 353.842 18.1805 373.954C19.4327 376.086 21.0715 378.125 23.0689 380.063C25.0067 382.06 27.046 383.699 29.1776 384.952C49.2898 398.455 89.2312 405.431 136.031 401.611C204.949 395.986 262.642 369.078 264.892 341.511C265.419 335.065 262.867 329.154 257.767 323.952C301.027 312.533 331.973 292.837 333.609 272.794C334.135 266.348 331.584 260.437 326.484 255.235C369.744 243.816 400.69 224.121 402.326 204.077C404.577 176.51 350.532 158.722 281.614 164.348C263.454 165.83 246.074 168.79 230.282 172.85C234.342 157.058 237.302 139.678 238.784 121.518C244.41 52.6005 226.622 -1.44441 199.055 0.805783C179.012 2.44184 159.316 33.3879 147.897 76.6477C142.695 71.5481 136.784 68.9966 130.338 69.5227C110.295 71.1588 90.5994 102.105 79.1798 145.365ZM91.1603 310.724C47.9005 322.144 16.9544 341.839 15.3184 361.882C14.9693 366.159 15.9749 370.2 18.1805 373.954C19.7265 376.257 21.3582 378.3 23.0689 380.063C24.8323 381.774 26.875 383.405 29.1776 384.952C32.9324 387.157 36.9734 388.163 41.2497 387.814C61.2933 386.178 80.9885 355.232 92.4081 311.972C92.1995 311.767 91.992 311.559 91.7856 311.346C91.9918 311.546 92.2019 311.745 92.4157 311.943C92.5611 311.392 92.7051 310.839 92.8477 310.284C105.811 306.951 119.845 304.36 134.501 302.718C145.125 289.226 154.512 268.305 161.125 243.255C160.916 243.05 160.709 242.842 160.503 242.629C160.709 242.829 160.919 243.028 161.133 243.226C161.278 242.675 161.422 242.122 161.565 241.567C174.528 238.234 188.562 235.643 203.218 234.001C214.079 220.207 223.649 198.648 230.282 172.85C204.484 179.483 182.925 189.053 169.131 199.914C167.489 214.57 164.898 228.604 161.565 241.567C161.01 241.71 160.457 241.854 159.906 241.999C160.104 242.213 160.303 242.423 160.503 242.629C160.29 242.423 160.082 242.215 159.877 242.007C134.827 248.62 113.906 258.007 100.414 268.631C98.7723 283.287 96.1808 297.321 92.8477 310.284C92.2929 310.427 91.74 310.571 91.1891 310.716C91.3869 310.93 91.5857 311.14 91.7856 311.346C91.5731 311.14 91.3646 310.932 91.1603 310.724Z" fill="#7B00E6"/>
</svg>
